<?xml version="1.0" encoding="utf-8"?>
<!-- Generator: Adobe Illustrator 18.0.0, SVG Export Plug-In . SVG Version: 6.00 Build 0)  -->
<!DOCTYPE svg PUBLIC "-//W3C//DTD SVG 1.0//EN" "http://www.w3.org/TR/2001/REC-SVG-20010904/DTD/svg10.dtd">
<svg version="1.0" id="Layer_1" xmlns="http://www.w3.org/2000/svg" xmlns:xlink="http://www.w3.org/1999/xlink" x="0px" y="0px"
	 viewBox="0 0 453.7 792" enable-background="new 0 0 453.7 792" xml:space="preserve">
<g opacity="0.65">
	<path fill="#FFFFFF" d="M382,792H71.6C31.8,792,0,759.7,0,720.4V71.6C0,32.3,32.3,0,71.6,0h310.5c39.8,0,71.6,32.3,71.6,71.6v648.3
		C453.6,759.7,421.3,792,382,792z"/>
</g>
<g>
	<path fill="none" d="M308,18.6c0.9,0,1.9,0,2.8,0l-1.4-1.4L308,18.6z"/>
	<path fill="none" d="M141.5,18.6c0.9,0,1.8,0,2.7,0l-1.3-1.4L141.5,18.6z"/>
	<polygon fill="none" points="230.1,773.4 222.1,773.4 226.1,777.5 	"/>
	<path fill="#FBD0DA" d="M182.6,716.1c0-10.5-4.1-20.4-11.5-27.9l-26.3-26.3l-1.9-2l-28.3,28.3c-1.4,1.4-2.7,2.9-3.8,4.4
		c-5,6.8-7.7,14.9-7.7,23.4l0,28.8c0,10.7-3.9,20.8-11,28.6h16.1c5.1-8.6,7.9-18.4,7.9-28.6l0-28.8c0-7.1,2.7-13.7,7.7-18.7
		l19.1-19.1l19.1,19.1c5,5,7.7,11.6,7.7,18.7v28.8c0,10.2,2.7,20.1,7.9,28.6h16.1c-7.1-7.9-11-18-11-28.6V716.1z"/>
	<path fill="#FBD0DA" d="M99.4,744.8l0-28.8c0-11.5,4.5-22.2,12.6-30.3l30.9-30.9l30.9,30.9c2.5,2.5,4.7,5.3,6.5,8.3
		c4,6.6,6.1,14.2,6.1,22l0,28.8c0,10.5,4.1,20.4,11.5,27.9l0.8,0.8H217l-10-10c-5-5-7.7-11.6-7.7-18.7l0-28.8
		c0-14.9-5.8-28.9-16.4-39.5l-40.1-40.1l-40.1,40.1c-2,2-3.8,4.1-5.4,6.3c-7.2,9.6-10.9,21.1-10.9,33.2l0,28.8
		c0,7.1-2.7,13.7-7.7,18.7l-8.5,8.5c4.2,1,8.6,1.5,13,1.5H87l0.8-0.8C95.3,765.2,99.4,755.3,99.4,744.8z"/>
	<path fill="#FBD0DA" d="M166,716.1c0-0.8,0-1.5-0.1-2.3c0-0.4-0.1-0.7-0.1-1.1c-0.7-4.9-3-9.3-6.5-12.8l-14.5-14.5l-1.9-2
		l-16.5,16.5c-0.5,0.5-1.1,1.1-1.5,1.7c-3.4,4.1-5.2,9.2-5.2,14.5l0,28.8c0,10.2-2.6,20-7.4,28.6h14.5c3.8-8.9,5.9-18.6,5.9-28.6
		l0-28.7c0-2.7,1-5.2,2.9-7l7.2-7.2l7.2,7.2c1.9,1.9,2.9,4.4,2.9,7v28.8c0,10,2,19.7,5.9,28.6h14.5c-4.8-8.7-7.4-18.5-7.4-28.6
		V716.1z"/>
	<path fill="#FBD0DA" d="M419.5,716.1l0,28.8c0,1.2-0.1,2.4-0.2,3.6c7.6-10.6,12.2-23.7,12.2-38v-28.8c-0.3,0.4-0.7,0.9-1,1.3
		C423.2,692.5,419.5,704,419.5,716.1z"/>
	<path fill="#FBD0DA" d="M332.5,716.1c0-0.8,0-1.5-0.1-2.3c0-0.4-0.1-0.7-0.1-1.1c-0.7-4.9-3-9.3-6.5-12.8l-16.4-16.4l-16.4,16.4
		c-0.5,0.5-1.1,1.1-1.5,1.7c-3.4,4.1-5.2,9.2-5.2,14.5l0,28.8c0,10.2-2.6,20-7.4,28.6h14.5c3.8-8.9,5.9-18.6,5.9-28.6l0-28.7
		c0-2.7,1-5.2,2.9-7l7.2-7.2l7.2,7.2c1.9,1.9,2.9,4.4,2.9,7v28.8c0,10,2,19.7,5.9,28.6h14.5c-4.8-8.7-7.4-18.5-7.4-28.6V716.1z"/>
	<path fill="#FBD0DA" d="M349.9,620.2c-11.2-11.2-17.4-26.1-17.4-41.9v-28.8c0-0.8,0-1.5-0.1-2.3c0-0.4-0.1-0.7-0.1-1.1
		c-0.7-4.9-3-9.3-6.5-12.8l-16.4-16.4l-16.4,16.4c-0.5,0.5-1.1,1.1-1.5,1.7c-3.4,4.1-5.2,9.2-5.2,14.5l0,28.8
		c0,15.8-6.2,30.7-17.4,41.9L226.1,663l-42.8-42.8C172.1,609,166,594.1,166,578.3v-28.8c0-0.8,0-1.5-0.1-2.3c0-0.4-0.1-0.7-0.1-1.1
		c-0.7-4.9-3-9.3-6.5-12.8l-14.5-14.5l-1.9-2l-16.5,16.5c-0.5,0.5-1.1,1.1-1.5,1.7c-3.4,4.1-5.2,9.2-5.2,14.5l0,28.8
		c0,15.8-6.2,30.7-17.4,41.9L59.5,663l-36.7-36.7v18.4l36.7,36.7l51.9-51.9c13.7-13.7,21.2-31.8,21.2-51.1l0-28.8c0-2.7,1-5.2,2.9-7
		l7.2-7.2l7.2,7.2c1.9,1.9,2.9,4.4,2.9,7v28.8c0,19.3,7.5,37.5,21.2,51.1l51.9,51.9l51.9-51.9c13.7-13.7,21.2-31.8,21.2-51.1l0-28.8
		c0-2.7,1-5.2,2.9-7l7.2-7.2l7.2,7.2c1.9,1.9,2.9,4.4,2.9,7v28.8c0,19.3,7.5,37.5,21.2,51.1l51.9,51.9l38.7-38.7v-18.4L392.7,663
		L349.9,620.2z"/>
	<path fill="#FBD0DA" d="M349.2,716.1c0-10.5-4.1-20.4-11.5-27.9l-28.3-28.3l-28.3,28.3c-1.4,1.4-2.7,2.9-3.8,4.4
		c-5,6.8-7.7,14.9-7.7,23.4l0,28.8c0,10.7-3.9,20.8-11,28.6h16.1c5.1-8.6,7.9-18.4,7.9-28.6l0-28.8c0-7.1,2.7-13.7,7.7-18.7
		l19.1-19.1l19.1,19.1c5,5,7.7,11.6,7.7,18.7v28.8c0,10.2,2.7,20.1,7.9,28.6h16.1c-7.1-7.9-11-18-11-28.6V716.1z"/>
	<path fill="#FBD0DA" d="M365.8,744.8l0-28.8c0-14.9-5.8-28.9-16.4-39.5l-38.2-38.2l-2-1.8l-40,40c-2,2-3.8,4.1-5.4,6.3
		c-7.2,9.6-10.9,21.1-10.9,33.2l0,28.8c0,7.1-2.7,13.7-7.7,18.7l-10,10h18.4l0.8-0.8c7.4-7.4,11.5-17.3,11.5-27.9l0-28.8
		c0-11.5,4.5-22.2,12.6-30.3l30.9-30.9l30.9,30.9c2.5,2.5,4.7,5.3,6.5,8.3c4,6.6,6.1,14.2,6.1,22l0,28.8c0,10.5,4.1,20.4,11.5,27.9
		l0.8,0.8h5.8c3.9,0,7.7-0.4,11.4-1.1l-8.8-8.8C368.6,758.5,365.8,751.9,365.8,744.8z"/>
	<path fill="#FBD0DA" d="M32.7,716.1c0-11.5-3.5-22.5-9.9-31.8v26.1c0,12.8,3.7,24.8,9.9,34.7c0-0.1,0-0.2,0-0.3L32.7,716.1z"/>
	<path fill="#FBD0DA" d="M346.8,27.9c4,6.6,6.1,14.2,6.1,22l0,28.8c0,10.5,4.1,20.4,11.5,27.9l28.3,28.3l28.3-28.3
		c5.3-5.3,8.8-11.7,10.5-18.8v-5.9c0-14-4.3-26.9-11.7-37.3c-0.2,1.8-0.3,3.6-0.3,5.5l0,28.8c0,7.1-2.7,13.7-7.7,18.7l-19.1,19.1
		l-19.1-19.1c-5-5-7.7-11.6-7.7-18.7l0-28.8c0-11.3-3.3-22.1-9.5-31.2c-4.7,0-10.4,0-16.9,0l0.9,0.9C342.8,22.1,345,24.9,346.8,27.9
		z"/>
	<path fill="#FBD0DA" d="M161.9,31.2c5,5,7.7,11.6,7.7,18.7v28.8c0,14.9,5.8,28.9,16.4,39.5l40.1,40.1l40.1-40.1
		c10.5-10.5,16.4-24.6,16.4-39.5l0-28.8c0-7.1,2.7-13.7,7.7-18.7l12.6-12.6c-5.9,0-12,0-18.4,0l-3.4,3.4c-1.4,1.4-2.7,2.9-3.8,4.4
		c-5,6.8-7.7,14.9-7.7,23.4l0,28.7c0,11.5-4.5,22.2-12.6,30.3l-30.9,30.9l-30.9-30.9c-8.1-8.1-12.6-18.9-12.6-30.3V49.9
		c0-10.5-4.1-20.4-11.5-27.9l-3.4-3.4c-6.3,0-12.5,0-18.4,0L161.9,31.2z"/>
	<path fill="#FBD0DA" d="M369.5,78.6c0,6.1,2.4,11.9,6.7,16.2l16.4,16.4l16.4-16.4c4.3-4.3,6.7-10.1,6.7-16.2l0-28.8
		c0-3.2,0.3-6.4,0.8-9.6c-3.2-3.9-6.9-7.4-11-10.3c-1.8,6.4-2.8,13.1-2.8,19.9l0,28.8c0,0.7-0.1,1.3-0.2,2c-0.4,1.9-1.3,3.7-2.7,5.1
		l-7.2,7.2l-7.2-7.2c-1.2-1.2-2-2.6-2.5-4.1c-0.3-0.9-0.4-1.9-0.4-2.9l0-28.8c0-10.9-2.4-21.4-6.9-31c-1.5-0.1-3-0.2-4.5-0.2
		c0,0-3.7,0-10.4,0c5.8,9.3,8.9,20,8.9,31.2L369.5,78.6z"/>
	<path fill="#FBD0DA" d="M203,78.6c0,6.1,2.4,11.9,6.7,16.2l16.4,16.4l16.4-16.4c4.3-4.3,6.7-10.1,6.7-16.2l0-28.8
		c0-11.2,3.1-22,8.9-31.3c-4.9,0-9.8,0-14.8,0c-4.6,9.7-7.1,20.3-7.1,31.3l0,28.8c0,0.7-0.1,1.3-0.2,2c-0.4,1.9-1.3,3.7-2.7,5.1
		l-7.2,7.2l-7.2-7.2c-1.2-1.2-2-2.6-2.5-4.1c-0.3-0.9-0.4-1.9-0.4-2.9l0-28.8c0-11-2.5-21.7-7.1-31.3c-5,0-9.9,0-14.8,0
		c5.8,9.3,8.9,20.1,8.9,31.3L203,78.6z"/>
	<path fill="#FBD0DA" d="M180.2,27.9c4,6.6,6.1,14.2,6.1,22l0,28.8c0,10.5,4.1,20.4,11.5,27.9l28.3,28.3l28.3-28.3
		c7.4-7.4,11.5-17.3,11.5-27.9l0-28.8c0-11.5,4.5-22.2,12.6-30.3l1-1c-5.5,0-11.2,0-16.9,0c-6.3,9.2-9.6,20-9.6,31.3l0,28.8
		c0,7.1-2.7,13.7-7.7,18.7l-19.1,19.1L207,97.3c-5-5-7.7-11.6-7.7-18.7l0-28.8c0-11.3-3.4-22.1-9.6-31.3c-5.7,0-11.4,0-16.9,0l1,1
		C176.3,22.1,178.4,24.9,180.2,27.9z"/>
	<path fill="#FBD0DA" d="M59.5,134.7l28.3-28.3c7.4-7.4,11.5-17.3,11.5-27.9l0-28.8c0-11.5,4.5-22.2,12.6-30.3l1-1
		c-6.6,0-12.3,0-17,0c-6.3,9.2-9.6,20-9.6,31.3l0,28.8c0,7.1-2.7,13.7-7.7,18.7l-19.1,19.1L40.5,97.3c-5-5-7.7-11.6-7.7-18.7l0-28.8
		c0-0.9,0-1.9-0.1-2.8c-6.2,10-9.9,21.9-9.9,34.7v12.1c2,4.7,4.8,8.9,8.5,12.6L59.5,134.7z"/>
	<path fill="#FBD0DA" d="M99.6,118.1c10.5-10.5,16.4-24.6,16.4-39.5l0-28.8c0-7.1,2.7-13.7,7.7-18.7l12.6-12.6c-6.6,0-12.7,0-18.4,0
		l-3.4,3.4c-1.4,1.4-2.7,2.9-3.8,4.4c-5,6.8-7.7,14.9-7.7,23.4l0,28.7c0,11.5-4.5,22.2-12.6,30.3l-30.9,30.9l-30.9-30.9
		c-2.2-2.2-4.2-4.7-5.8-7.3v19.8l36.7,36.7L99.6,118.1z"/>
	<path fill="#FBD0DA" d="M36.4,78.6c0,6.1,2.4,11.9,6.7,16.2l16.4,16.4L76,94.8c4.3-4.3,6.7-10.1,6.7-16.2l0-28.8
		c0-11.2,3.1-22,8.9-31.3c-5.5,0-8.5,0-8.5,0c-2.2,0-4.3,0.1-6.5,0.4c-4.5,9.6-6.9,20.1-6.9,30.9l0,28.8c0,0.7-0.1,1.3-0.2,2
		c-0.4,1.9-1.3,3.7-2.7,5.1l-7.2,7.2l-7.2-7.2c-1.2-1.2-2-2.6-2.5-4.1c-0.3-0.9-0.4-1.9-0.4-2.9l0-28.8c0-6.4-0.8-12.7-2.5-18.7
		c-4.1,3.2-7.8,7-11,11.2c0.3,2.5,0.5,5,0.5,7.5L36.4,78.6z"/>
	<path fill="#FBD0DA" d="M392.7,639.5l-30.9-30.9c-8.1-8.1-12.6-18.9-12.6-30.3v-28.8c0-10.5-4.1-20.4-11.5-27.9l-28.3-28.3
		l-28.3,28.3c-1.4,1.4-2.7,2.9-3.8,4.4c-5,6.8-7.7,14.9-7.7,23.4l0,28.8c0,11.5-4.5,22.2-12.6,30.3l-30.9,30.9l-30.9-30.9
		c-8.1-8.1-12.6-18.9-12.6-30.3v-28.8c0-10.5-4.1-20.4-11.5-27.9l-26.3-26.3l-1.9-2l-28.3,28.3c-1.4,1.4-2.7,2.9-3.8,4.4
		c-5,6.8-7.7,14.9-7.7,23.4l0,28.8c0,11.5-4.5,22.2-12.6,30.3l-30.9,30.9l-30.9-30.9c-2.2-2.2-4.2-4.7-5.8-7.3v19.8l36.7,36.7
		l40.1-40.1c10.5-10.6,16.4-24.6,16.4-39.5l0-28.8c0-7.1,2.7-13.7,7.7-18.7l19.1-19.1l19.1,19.1c5,5,7.7,11.6,7.7,18.7v28.8
		c0,14.9,5.8,28.9,16.4,39.5l40.1,40.1l40.1-40.1c10.5-10.6,16.4-24.6,16.4-39.5l0-28.8c0-7.1,2.7-13.7,7.7-18.7l19.1-19.1
		l19.1,19.1c5,5,7.7,11.6,7.7,18.7v28.8c0,14.9,5.8,28.9,16.4,39.5l40.1,40.1l38.7-38.7v-21.3c-2,3.9-4.6,7.5-7.8,10.7L392.7,639.5z
		"/>
	<path fill="#FBD0DA" d="M422.1,666.9L422.1,666.9c-12.4,13.4-19.3,30.9-19.3,49.2l0,28.8c0,0.7-0.1,1.3-0.2,2
		c-0.4,1.9-1.3,3.7-2.7,5.1l-7.2,7.2l-7.2-7.2c-1.2-1.2-2-2.6-2.5-4.1c-0.3-0.9-0.4-1.9-0.4-2.9l0-28.8c0-19.3-7.5-37.5-21.2-51.1
		L309.4,613l-51.9,51.9l-1.9,1.9v0c-12.4,13.4-19.3,30.8-19.3,49.2l0,28.8c0,0.7-0.1,1.3-0.2,2c-0.4,1.9-1.3,3.7-2.7,5.1l-7.2,7.2
		l-7.2-7.2c-1.2-1.2-2-2.6-2.5-4.1c-0.3-0.9-0.4-1.9-0.4-2.9l0-28.8c0-19.3-7.5-37.5-21.2-51.1l-50-50l-1.9-2l-52,52l-1.9,1.9v0
		c-12.4,13.4-19.3,30.8-19.3,49.2l0,28.8c0,0.7-0.1,1.3-0.2,2c-0.4,1.9-1.3,3.7-2.7,5.1l-7.2,7.2l-7.2-7.2c-1.2-1.2-2-2.6-2.5-4.1
		c-0.3-0.9-0.4-1.9-0.4-2.9l0-28.8c0-19.3-7.5-37.5-21.2-51.1l-5.4-5.4v18.7c8.8,10.6,13.6,23.8,13.6,37.8l0,28.8
		c0,2.3,0.3,4.6,1,6.7c7.5,9.1,17.4,15.9,28.7,19.4L76,761c4.3-4.3,6.7-10.1,6.7-16.2l0-28.8c0-15.8,6.2-30.7,17.4-41.9l42.8-42.8
		l42.8,42.8c11.2,11.2,17.4,26.1,17.4,41.9l0,28.8c0,6.1,2.4,11.9,6.7,16.2l12.4,12.4h8l12.4-12.4c4.3-4.3,6.7-10.1,6.7-16.2l0-28.8
		c0-15.8,6.2-30.7,17.4-41.9l42.8-42.8l42.8,42.8c11.2,11.2,17.4,26.1,17.4,41.9l0,28.8c0,6.1,2.4,11.9,6.7,16.2l10.3,10.3
		c10.2-2.8,19.3-8.3,26.6-15.8c1.7-3.3,2.7-6.9,2.7-10.8l0-28.8c0-15,5.5-29.1,15.6-40.1v-18.5l-7.4,7.4L422.1,666.9z"/>
	<path fill="#FBD0DA" d="M422.1,333.8L422.1,333.8c-12.4,13.4-19.3,30.9-19.3,49.2l0,28.8c0,0.7-0.1,1.3-0.2,2
		c-0.4,1.9-1.3,3.7-2.7,5.1l-7.2,7.2l-7.2-7.2c-1.2-1.2-2-2.6-2.5-4.1c-0.3-0.9-0.4-1.9-0.4-2.9l0-28.8c0-19.3-7.5-37.5-21.2-51.1
		l-51.9-51.9l-51.9,51.9l-1.9,1.9v0c-12.4,13.4-19.3,30.8-19.3,49.2l0,28.8c0,0.7-0.1,1.3-0.2,2c-0.4,1.9-1.3,3.7-2.7,5.1l-7.2,7.2
		l-7.2-7.2c-1.2-1.2-2-2.6-2.5-4.1c-0.3-0.9-0.4-1.9-0.4-2.9l0-28.8c0-19.3-7.5-37.5-21.2-51.1l-50-50l-1.9-2l-52,52l-1.9,1.9v0
		c-12.4,13.4-19.3,30.8-19.3,49.2l0,28.8c0,0.7-0.1,1.3-0.2,2c-0.4,1.9-1.3,3.7-2.7,5.1l-7.2,7.2l-7.2-7.2c-1.2-1.2-2-2.6-2.5-4.1
		c-0.3-0.9-0.4-1.9-0.4-2.9l0-28.8c0-19.3-7.5-37.5-21.2-51.1l-5.4-5.4v18.7c8.8,10.6,13.6,23.8,13.6,37.8l0,28.8
		c0,6.1,2.4,11.9,6.7,16.2l16.4,16.4L76,427.9c4.3-4.3,6.7-10.1,6.7-16.2l0-28.8c0-15.8,6.2-30.7,17.4-41.9l42.8-42.8l42.8,42.8
		c11.2,11.2,17.4,26.1,17.4,41.9l0,28.8c0,6.1,2.4,11.9,6.7,16.2l16.4,16.4l16.4-16.4c4.3-4.3,6.7-10.1,6.7-16.2l0-28.8
		c0-15.8,6.2-30.7,17.4-41.9l42.8-42.8l42.8,42.8c11.2,11.2,17.4,26.1,17.4,41.9l0,28.8c0,6.1,2.4,11.9,6.7,16.2l16.4,16.4
		l16.4-16.4c4.3-4.3,6.7-10.1,6.7-16.2l0-28.8c0-15,5.5-29.1,15.6-40.1v-18.5l-7.4,7.4L422.1,333.8z"/>
	<path fill="#FBD0DA" d="M419.5,383l0,28.8c0,7.1-2.7,13.7-7.7,18.7l-19.1,19.1l-19.1-19.1c-5-5-7.7-11.6-7.7-18.7l0-28.8
		c0-14.9-5.8-28.9-16.4-39.5l-38.2-38.2l-2-1.8l-40,40c-2,2-3.8,4.1-5.4,6.3c-7.2,9.6-10.9,21.1-10.9,33.2l0,28.8
		c0,7.1-2.7,13.7-7.7,18.7l-19.1,19.1L207,430.4c-5-5-7.7-11.6-7.7-18.7l0-28.8c0-14.9-5.8-28.9-16.4-39.5l-40.1-40.1l-40.1,40.1
		c-2,2-3.8,4.1-5.4,6.3c-7.2,9.6-10.9,21.1-10.9,33.2l0,28.8c0,7.1-2.7,13.7-7.7,18.7l-19.1,19.1l-19.1-19.1c-5-5-7.7-11.6-7.7-18.7
		l0-28.8c0-11.5-3.5-22.5-9.9-31.8V427c2,4.7,4.8,8.9,8.5,12.6l28.3,28.3l28.3-28.3c7.4-7.4,11.5-17.3,11.5-27.9l0-28.8
		c0-11.5,4.5-22.2,12.6-30.3l30.9-30.9l30.9,30.9c2.5,2.5,4.7,5.3,6.5,8.3c4,6.6,6.1,14.2,6.1,22l0,28.8c0,10.5,4.1,20.4,11.5,27.9
		l28.3,28.3l28.3-28.3c7.4-7.4,11.5-17.3,11.5-27.9l0-28.8c0-11.5,4.5-22.2,12.6-30.3l30.9-30.9l30.9,30.9c2.5,2.5,4.7,5.3,6.5,8.3
		c4,6.6,6.1,14.2,6.1,22l0,28.8c0,10.5,4.1,20.4,11.5,27.9l28.3,28.3l28.3-28.3c5.3-5.3,8.8-11.7,10.5-18.8v-72.3
		c-0.3,0.4-0.7,0.9-1,1.3C423.2,359.4,419.5,370.9,419.5,383z"/>
	<path fill="#FBD0DA" d="M349.9,287.1c-11.2-11.2-17.4-26.1-17.4-41.9v-28.8c0-0.8,0-1.5-0.1-2.3c0-0.4-0.1-0.7-0.1-1.1
		c-0.7-4.9-3-9.3-6.5-12.8l-16.4-16.4l-16.4,16.4c-0.5,0.5-1.1,1.1-1.5,1.7c-3.4,4.1-5.2,9.2-5.2,14.5l0,28.8
		c0,15.8-6.2,30.7-17.4,41.9l-42.8,42.8l-42.8-42.8C172.1,275.9,166,261,166,245.2v-28.8c0-0.8,0-1.5-0.1-2.3c0-0.4-0.1-0.7-0.1-1.1
		c-0.7-4.9-3-9.3-6.5-12.8l-14.5-14.5l-1.9-2l-16.5,16.5c-0.5,0.5-1.1,1.1-1.5,1.7c-3.4,4.1-5.2,9.2-5.2,14.5l0,28.8
		c0,15.8-6.2,30.7-17.4,41.9l-42.8,42.8l-36.7-36.7v18.4l36.7,36.7l51.9-51.9c13.7-13.7,21.2-31.8,21.2-51.1l0-28.7
		c0-2.7,1-5.2,2.9-7l7.2-7.2l7.2,7.2c1.9,1.9,2.9,4.4,2.9,7v28.8c0,19.3,7.5,37.5,21.2,51.1l51.9,51.9l51.9-51.9
		c13.7-13.7,21.2-31.8,21.2-51.1l0-28.7c0-2.7,1-5.2,2.9-7l7.2-7.2l7.2,7.2c1.9,1.9,2.9,4.4,2.9,7v28.8c0,19.3,7.5,37.5,21.2,51.1
		l51.9,51.9l38.7-38.7v-18.4l-38.7,38.7L349.9,287.1z"/>
	<path fill="#FBD0DA" d="M392.7,472.9L361.7,442c-8.1-8.1-12.6-18.9-12.6-30.3V383c0-10.5-4.1-20.4-11.5-27.9l-28.3-28.3l-28.3,28.3
		c-1.4,1.4-2.7,2.9-3.8,4.4c-5,6.8-7.7,14.9-7.7,23.4l0,28.8c0,11.5-4.5,22.2-12.6,30.3l-30.9,30.9L195.2,442
		c-8.1-8.1-12.6-18.9-12.6-30.3V383c0-10.5-4.1-20.4-11.5-27.9l-26.3-26.3l-1.9-2l-28.3,28.3c-1.4,1.4-2.7,2.9-3.8,4.4
		c-5,6.8-7.7,14.9-7.7,23.4l0,28.8c0,11.5-4.5,22.2-12.6,30.3l-30.9,30.9L28.6,442c-2.2-2.2-4.2-4.7-5.8-7.3v19.8l36.7,36.7
		l40.1-40.1c10.5-10.5,16.4-24.6,16.4-39.5l0-28.8c0-7.1,2.7-13.7,7.7-18.7l19.1-19.1l19.1,19.1c5,5,7.7,11.6,7.7,18.7v28.8
		c0,14.9,5.8,28.9,16.4,39.5l40.1,40.1l40.1-40.1c10.5-10.5,16.4-24.6,16.4-39.5l0-28.8c0-7.1,2.7-13.7,7.7-18.7l19.1-19.1
		l19.1,19.1c5,5,7.7,11.6,7.7,18.7v28.8c0,14.9,5.8,28.9,16.4,39.5l40.1,40.1l38.7-38.7v-21.3c-2,3.9-4.6,7.5-7.8,10.7L392.7,472.9z
		"/>
	<path fill="#FBD0DA" d="M349.9,453.7c-11.2-11.2-17.4-26.1-17.4-41.9V383c0-0.8,0-1.5-0.1-2.3c0-0.4-0.1-0.7-0.1-1.1
		c-0.7-4.9-3-9.3-6.5-12.8l-16.4-16.4l-16.4,16.4c-0.5,0.5-1.1,1.1-1.5,1.7c-3.4,4.1-5.2,9.2-5.2,14.5l0,28.8
		c0,15.8-6.2,30.7-17.4,41.9l-42.8,42.8l-42.8-42.8c-11.2-11.2-17.4-26.1-17.4-41.9V383c0-0.8,0-1.5-0.1-2.3c0-0.4-0.1-0.7-0.1-1.1
		c-0.7-4.9-3-9.3-6.5-12.8l-14.5-14.5l-1.9-2l-16.5,16.5c-0.5,0.5-1.1,1.1-1.5,1.7c-3.4,4.1-5.2,9.2-5.2,14.5l0,28.8
		c0,15.8-6.2,30.7-17.4,41.9l-42.8,42.8l-36.7-36.7V478l36.7,36.7l51.9-51.9c13.7-13.7,21.2-31.8,21.2-51.1l0-28.8
		c0-2.7,1-5.2,2.9-7l7.2-7.2l7.2,7.2c1.9,1.9,2.9,4.4,2.9,7v28.8c0,19.3,7.5,37.5,21.2,51.1l51.9,51.9l51.9-51.9
		c13.7-13.7,21.2-31.8,21.2-51.1l0-28.8c0-2.7,1-5.2,2.9-7l7.2-7.2l7.2,7.2c1.9,1.9,2.9,4.4,2.9,7v28.8c0,19.3,7.5,37.5,21.2,51.1
		l51.9,51.9l38.7-38.7v-18.4l-38.7,38.7L349.9,453.7z"/>
	<path fill="#FBD0DA" d="M422.1,167.2L422.1,167.2c-12.4,13.4-19.3,30.9-19.3,49.2l0,28.8c0,0.7-0.1,1.3-0.2,2
		c-0.4,1.9-1.3,3.7-2.7,5.1l-7.2,7.2l-7.2-7.2c-1.2-1.2-2-2.6-2.5-4.1c-0.3-0.9-0.4-1.9-0.4-2.9l0-28.8c0-19.3-7.5-37.5-21.2-51.1
		l-51.9-51.9l-51.9,51.9l-1.9,1.9v0c-12.4,13.4-19.3,30.8-19.3,49.2l0,28.8c0,0.7-0.1,1.3-0.2,2c-0.4,1.9-1.3,3.7-2.7,5.1l-7.2,7.2
		l-7.2-7.2c-1.2-1.2-2-2.6-2.5-4.1c-0.3-0.9-0.4-1.9-0.4-2.9l0-28.8c0-19.3-7.5-37.5-21.2-51.1l-50-50l-1.9-2l-52,52l-1.9,1.9v0
		c-12.4,13.4-19.3,30.8-19.3,49.2l0,28.8c0,0.7-0.1,1.3-0.2,2c-0.4,1.9-1.3,3.7-2.7,5.1l-7.2,7.2l-7.2-7.2c-1.2-1.2-2-2.6-2.5-4.1
		c-0.3-0.9-0.4-1.9-0.4-2.9l0-28.8c0-19.3-7.5-37.5-21.2-51.1l-5.4-5.4v18.7c8.8,10.6,13.6,23.8,13.6,37.8l0,28.8
		c0,6.1,2.4,11.9,6.7,16.2l16.4,16.4L76,261.4c4.3-4.3,6.7-10.1,6.7-16.2l0-28.8c0-15.8,6.2-30.7,17.4-41.9l42.8-42.8l42.8,42.8
		c11.2,11.2,17.4,26.1,17.4,41.9l0,28.8c0,6.1,2.4,11.9,6.7,16.2l16.4,16.4l16.4-16.4c4.3-4.3,6.7-10.1,6.7-16.2l0-28.8
		c0-15.8,6.2-30.7,17.4-41.9l42.8-42.8l42.8,42.8c11.2,11.2,17.4,26.1,17.4,41.9l0,28.8c0,6.1,2.4,11.9,6.7,16.2l16.4,16.4
		l16.4-16.4c4.3-4.3,6.7-10.1,6.7-16.2l0-28.8c0-15,5.5-29.1,15.6-40.1v-18.5l-7.4,7.4L422.1,167.2z"/>
	<path fill="#FBD0DA" d="M392.7,306.4l-30.9-30.9c-8.1-8.1-12.6-18.9-12.6-30.3v-28.8c0-10.5-4.1-20.4-11.5-27.9l-28.3-28.3
		l-28.3,28.3c-1.4,1.4-2.7,2.9-3.8,4.4c-5,6.8-7.7,14.9-7.7,23.4l0,28.8c0,11.5-4.5,22.2-12.6,30.3l-30.9,30.9l-30.9-30.9
		c-8.1-8.1-12.6-18.9-12.6-30.3v-28.8c0-10.5-4.1-20.4-11.5-27.9l-26.3-26.3l-1.9-2l-28.3,28.3c-1.4,1.4-2.7,2.9-3.8,4.4
		c-5,6.8-7.7,14.9-7.7,23.4l0,28.8c0,11.5-4.5,22.2-12.6,30.3l-30.9,30.9l-30.9-30.9c-2.2-2.2-4.2-4.7-5.8-7.3V288l36.7,36.7
		l40.1-40.1c10.5-10.6,16.4-24.6,16.4-39.5l0-28.8c0-7.1,2.7-13.7,7.7-18.7l19.1-19.1l19.1,19.1c5,5,7.7,11.6,7.7,18.7v28.8
		c0,14.9,5.8,28.9,16.4,39.5l40.1,40.1l40.1-40.1c10.5-10.6,16.4-24.6,16.4-39.5l0-28.8c0-7.1,2.7-13.7,7.7-18.7l19.1-19.1
		l19.1,19.1c5,5,7.7,11.6,7.7,18.7v28.8c0,14.9,5.8,28.9,16.4,39.5l40.1,40.1l38.7-38.7v-21.3c-2,3.9-4.6,7.5-7.8,10.7L392.7,306.4z
		"/>
	<path fill="#FBD0DA" d="M349.9,120.6c-11.2-11.2-17.4-26.1-17.4-42V49.9c0-0.8,0-1.5-0.1-2.3c0-0.4-0.1-0.7-0.1-1.1
		c-0.7-4.9-3-9.3-6.5-12.8l-15-15c-0.9,0-1.8,0-2.8,0l-15,15c-0.5,0.5-1.1,1.1-1.5,1.7c-3.4,4.1-5.2,9.2-5.2,14.5l0,28.8
		c0,15.8-6.2,30.7-17.4,41.9l-42.8,42.8l-42.8-42.8c-11.2-11.2-17.4-26.1-17.4-42V49.9c0-0.8,0-1.5-0.1-2.3c0-0.4-0.1-0.7-0.1-1.1
		c-0.7-4.9-3-9.3-6.5-12.8l-14.5-14.5l-0.6-0.6c-0.9,0-1.8,0-2.7,0l-15.1,15.1c-0.5,0.5-1.1,1.1-1.5,1.7c-3.4,4.1-5.2,9.2-5.2,14.5
		l0,28.8c0,15.8-6.2,30.7-17.4,41.9l-42.8,42.8l-36.7-36.7v18.4l36.7,36.7l51.9-51.9c13.7-13.7,21.2-31.8,21.2-51.1l0-28.7
		c0-2.7,1-5.2,2.9-7l7.2-7.2l7.2,7.2c1.9,1.9,2.9,4.4,2.9,7v28.8c0,19.3,7.5,37.5,21.2,51.1l51.9,51.9l51.9-51.9
		c13.7-13.7,21.2-31.8,21.2-51.1l0-28.7c0-2.7,1-5.2,2.9-7l7.2-7.2l7.2,7.2c1.9,1.9,2.9,4.4,2.9,7v28.8c0,19.3,7.5,37.5,21.2,51.1
		l51.9,51.9l38.7-38.7v-18.4l-38.7,38.7L349.9,120.6z"/>
	<path fill="#FBD0DA" d="M419.5,216.4l0,28.8c0,7.1-2.7,13.7-7.7,18.7l-19.1,19.1l-19.1-19.1c-5-5-7.7-11.6-7.7-18.7l0-28.8
		c0-14.9-5.8-28.9-16.4-39.5l-40.1-40.1l-40.1,40.1c-2,2-3.8,4.1-5.4,6.3c-7.2,9.6-10.9,21.1-10.9,33.2l0,28.8
		c0,7.1-2.7,13.7-7.7,18.7l-19.1,19.1L207,263.8c-5-5-7.7-11.6-7.7-18.7l0-28.8c0-14.9-5.8-28.9-16.4-39.5l-38.2-38.2l-1.9-2
		l-40.2,40.2c-2,2-3.8,4.1-5.4,6.3c-7.2,9.6-10.9,21.1-10.9,33.2l0,28.8c0,7.1-2.7,13.7-7.7,18.7l-19.1,19.1l-19.1-19.1
		c-5-5-7.7-11.6-7.7-18.7l0-28.8c0-11.5-3.5-22.5-9.9-31.8v75.8c2,4.7,4.8,8.9,8.5,12.6l28.3,28.3L87.8,273
		c7.4-7.4,11.5-17.3,11.5-27.9l0-28.8c0-11.5,4.5-22.2,12.6-30.3l30.9-30.9l30.9,30.9c2.5,2.5,4.7,5.3,6.5,8.3
		c4,6.6,6.1,14.2,6.1,22l0,28.8c0,10.5,4.1,20.4,11.5,27.9l28.3,28.3l28.3-28.3c7.4-7.4,11.5-17.3,11.5-27.9l0-28.8
		c0-11.5,4.5-22.2,12.6-30.3l30.9-30.9l30.9,30.9c2.5,2.5,4.7,5.3,6.5,8.3c4,6.6,6.1,14.2,6.1,22l0,28.8c0,10.5,4.1,20.4,11.5,27.9
		l28.3,28.3l28.3-28.3c5.3-5.3,8.8-11.7,10.5-18.8v-72.3c-0.3,0.4-0.7,0.9-1,1.3C423.2,192.8,419.5,204.3,419.5,216.4z"/>
	<path fill="#FBD0DA" d="M392.7,139.8l-30.9-30.9c-8.1-8.1-12.6-18.9-12.6-30.3V49.9c0-10.5-4.1-20.4-11.5-27.9l-3.4-3.4
		c-5.7,0-11.8,0-18.4,0l12.6,12.6c5,5,7.7,11.6,7.7,18.7v28.8c0,14.9,5.8,28.9,16.4,39.5l40.1,40.1l38.7-38.7V98.2
		c-2,3.9-4.6,7.5-7.8,10.7L392.7,139.8z"/>
	<path fill="#FBD0DA" d="M422.1,500.3L422.1,500.3c-12.4,13.4-19.3,30.9-19.3,49.2l0,28.8c0,0.7-0.1,1.3-0.2,2
		c-0.4,1.9-1.3,3.7-2.7,5.1l-7.2,7.2l-7.2-7.2c-1.2-1.2-2-2.6-2.5-4.1c-0.3-0.9-0.4-1.9-0.4-2.9l0-28.8c0-19.3-7.5-37.5-21.2-51.1
		l-51.9-51.9l-51.9,51.9l-1.9,1.9v0c-12.4,13.4-19.3,30.8-19.3,49.2l0,28.8c0,0.7-0.1,1.3-0.2,2c-0.4,1.9-1.3,3.7-2.7,5.1l-7.2,7.2
		l-7.2-7.2c-1.2-1.2-2-2.6-2.5-4.1c-0.3-0.9-0.4-1.9-0.4-2.9l0-28.8c0-19.3-7.5-37.5-21.2-51.1l-50-50l-1.9-2l-52,52l-1.9,1.9v0
		c-12.4,13.4-19.3,30.8-19.3,49.2l0,28.8c0,0.7-0.1,1.3-0.2,2c-0.4,1.9-1.3,3.7-2.7,5.1l-7.2,7.2l-7.2-7.2c-1.2-1.2-2-2.6-2.5-4.1
		c-0.3-0.9-0.4-1.9-0.4-2.9l0-28.8c0-19.3-7.5-37.5-21.2-51.1l-5.4-5.4v18.7c8.8,10.6,13.6,23.8,13.6,37.8l0,28.8
		c0,6.1,2.4,11.9,6.7,16.2l16.4,16.4L76,594.5c4.3-4.3,6.7-10.1,6.7-16.2l0-28.8c0-15.8,6.2-30.7,17.4-41.9l42.8-42.8l42.8,42.8
		c11.2,11.2,17.4,26.1,17.4,41.9l0,28.8c0,6.1,2.4,11.9,6.7,16.2l16.4,16.4l16.4-16.4c4.3-4.3,6.7-10.1,6.7-16.2l0-28.8
		c0-15.8,6.2-30.7,17.4-41.9l42.8-42.8l42.8,42.8c11.2,11.2,17.4,26.1,17.4,41.9l0,28.8c0,6.1,2.4,11.9,6.7,16.2l16.4,16.4
		l16.4-16.4c4.3-4.3,6.7-10.1,6.7-16.2l0-28.8c0-15,5.5-29.1,15.6-40.1V491l-7.4,7.4L422.1,500.3z"/>
	<path fill="#FBD0DA" d="M419.5,549.5l0,28.8c0,7.1-2.7,13.7-7.7,18.7L392.7,616l-19.1-19.1c-5-5-7.7-11.6-7.7-18.7l0-28.8
		c0-14.9-5.8-28.9-16.4-39.5l-38.2-38.2l-2-1.8l-40,40c-2,2-3.8,4.1-5.4,6.3c-7.2,9.6-10.9,21.1-10.9,33.2l0,28.8
		c0,7.1-2.7,13.7-7.7,18.7L226.1,616L207,596.9c-5-5-7.7-11.6-7.7-18.7l0-28.8c0-14.9-5.8-28.9-16.4-39.5l-40.1-40.1L102.7,510
		c-2,2-3.8,4.1-5.4,6.3c-7.2,9.6-10.9,21.1-10.9,33.2l0,28.8c0,7.1-2.7,13.7-7.7,18.7L59.5,616l-19.1-19.1c-5-5-7.7-11.6-7.7-18.7
		l0-28.8c0-11.5-3.5-22.5-9.9-31.8v75.8c2,4.7,4.8,8.9,8.5,12.6l28.3,28.3l28.3-28.3c7.4-7.4,11.5-17.3,11.5-27.9l0-28.8
		c0-11.5,4.5-22.2,12.6-30.3l30.9-30.9l30.9,30.9c2.5,2.5,4.7,5.3,6.5,8.3c4,6.6,6.1,14.2,6.1,22l0,28.8c0,10.5,4.1,20.4,11.5,27.9
		l28.3,28.3l28.3-28.3c7.4-7.4,11.5-17.3,11.5-27.9l0-28.8c0-11.5,4.5-22.2,12.6-30.3l30.9-30.9l30.9,30.9c2.5,2.5,4.7,5.3,6.5,8.3
		c4,6.6,6.1,14.2,6.1,22l0,28.8c0,10.5,4.1,20.4,11.5,27.9l28.3,28.3l28.3-28.3c5.3-5.3,8.8-11.7,10.5-18.8V515
		c-0.3,0.4-0.7,0.9-1,1.3C423.2,525.9,419.5,537.4,419.5,549.5z"/>
	<path fill="#F8B8C3" d="M352.6,284.7c-10.6-10.6-16.4-24.6-16.4-39.5v-28.8c0-7.1-2.7-13.7-7.7-18.7l-19.1-19.1l-19.1,19.1
		c-5,5-7.7,11.6-7.7,18.7l0,28.8c0,14.9-5.8,28.9-16.4,39.5l-40.1,40.1L186,284.7c-10.5-10.6-16.4-24.6-16.4-39.5v-28.8
		c0-7.1-2.7-13.7-7.7-18.7l-19.1-19.1l-19.1,19.1c-5,5-7.7,11.6-7.7,18.7l0,28.8c0,14.9-5.8,28.9-16.4,39.5l-40.1,40.1L22.8,288v5.1
		l36.7,36.7l42.8-42.8c11.2-11.2,17.4-26.1,17.4-41.9l0-28.8c0-5.4,1.8-10.4,5.2-14.5c0.5-0.6,1-1.1,1.5-1.7l16.5-16.5l1.9,2
		l14.5,14.5c3.5,3.5,5.8,7.9,6.5,12.8c0.1,0.4,0.1,0.7,0.1,1.1c0.1,0.8,0.1,1.5,0.1,2.3v28.8c0,15.8,6.2,30.7,17.4,41.9l42.8,42.8
		l42.8-42.8c11.2-11.2,17.4-26.1,17.4-41.9l0-28.8c0-5.4,1.8-10.4,5.2-14.5c0.5-0.6,1-1.1,1.5-1.7l16.4-16.4l16.4,16.4
		c3.5,3.5,5.8,7.9,6.5,12.8c0.1,0.4,0.1,0.7,0.1,1.1c0.1,0.8,0.1,1.5,0.1,2.3v28.8c0,15.8,6.2,30.7,17.4,41.9l42.8,42.8l38.7-38.7
		V286l-38.7,38.7L352.6,284.7z"/>
	<path fill="#F8B8C3" d="M352.6,451.2c-10.6-10.6-16.4-24.6-16.4-39.5V383c0-7.1-2.7-13.7-7.7-18.7l-19.1-19.1l-19.1,19.1
		c-5,5-7.7,11.6-7.7,18.7l0,28.8c0,14.9-5.8,28.9-16.4,39.5l-40.1,40.1L186,451.2c-10.5-10.6-16.4-24.6-16.4-39.5V383
		c0-7.1-2.7-13.7-7.7-18.7l-19.1-19.1l-19.1,19.1c-5,5-7.7,11.6-7.7,18.7l0,28.8c0,14.9-5.8,28.9-16.4,39.5l-40.1,40.1l-36.7-36.7
		v5.1l36.7,36.7l42.8-42.8c11.2-11.2,17.4-26.1,17.4-41.9l0-28.8c0-5.4,1.8-10.4,5.2-14.5c0.5-0.6,1-1.1,1.5-1.7l16.5-16.5l1.9,2
		l14.5,14.5c3.5,3.5,5.8,7.9,6.5,12.8c0.1,0.4,0.1,0.7,0.1,1.1c0.1,0.8,0.1,1.5,0.1,2.3v28.8c0,15.8,6.2,30.7,17.4,41.9l42.8,42.8
		l42.8-42.8c11.2-11.2,17.4-26.1,17.4-41.9l0-28.8c0-5.4,1.8-10.4,5.2-14.5c0.5-0.6,1-1.1,1.5-1.7l16.4-16.4l16.4,16.4
		c3.5,3.5,5.8,7.9,6.5,12.8c0.1,0.4,0.1,0.7,0.1,1.1c0.1,0.8,0.1,1.5,0.1,2.3v28.8c0,15.8,6.2,30.7,17.4,41.9l42.8,42.8l38.7-38.7
		v-5.1l-38.7,38.7L352.6,451.2z"/>
	<path fill="#F8B8C3" d="M392.7,301.3L364.4,273c-7.4-7.4-11.5-17.3-11.5-27.9l0-28.8c0-7.8-2.1-15.4-6.1-22c-1.8-3-4-5.8-6.5-8.3
		l-30.9-30.9l-30.9,30.9c-8.1,8.1-12.6,18.9-12.6,30.3l0,28.8c0,10.5-4.1,20.4-11.5,27.9l-28.3,28.3L197.8,273
		c-7.4-7.4-11.5-17.3-11.5-27.9l0-28.8c0-7.8-2.1-15.4-6.1-22c-1.8-3-4-5.8-6.5-8.3l-30.9-30.9l-30.9,30.9
		c-8.1,8.1-12.6,18.9-12.6,30.3l0,28.8c0,10.5-4.1,20.4-11.5,27.9l-28.3,28.3L31.3,273c-3.7-3.7-6.5-7.9-8.5-12.6v7.8
		c1.7,2.6,3.6,5,5.8,7.3l30.9,30.9l30.9-30.9c8.1-8.1,12.6-18.9,12.6-30.3l0-28.8c0-8.5,2.7-16.6,7.7-23.4c1.2-1.6,2.4-3,3.8-4.4
		l28.3-28.3l1.9,2l26.3,26.3c7.4,7.4,11.5,17.3,11.5,27.9v28.8c0,11.5,4.5,22.2,12.6,30.3l30.9,30.9l30.9-30.9
		c8.1-8.1,12.6-18.9,12.6-30.3l0-28.8c0-8.5,2.7-16.6,7.7-23.4c1.2-1.6,2.4-3,3.8-4.4l28.3-28.3l28.3,28.3
		c7.4,7.4,11.5,17.3,11.5,27.9v28.8c0,11.5,4.5,22.2,12.6,30.3l30.9,30.9l30.9-30.9c3.2-3.2,5.8-6.8,7.8-10.7v-10.5
		c-1.7,7.1-5.2,13.5-10.5,18.8L392.7,301.3z"/>
	<path fill="#F8B8C3" d="M352.6,617.8c-10.6-10.6-16.4-24.6-16.4-39.5v-28.8c0-7.1-2.7-13.7-7.7-18.7l-19.1-19.1l-19.1,19.1
		c-5,5-7.7,11.6-7.7,18.7l0,28.8c0,14.9-5.8,28.9-16.4,39.5l-40.1,40.1L186,617.8c-10.5-10.6-16.4-24.6-16.4-39.5v-28.8
		c0-7.1-2.7-13.7-7.7-18.7l-19.1-19.1l-19.1,19.1c-5,5-7.7,11.6-7.7,18.7l0,28.8c0,14.9-5.8,28.9-16.4,39.5l-40.1,40.1l-36.7-36.7
		v5.1L59.5,663l42.8-42.8c11.2-11.2,17.4-26.1,17.4-41.9l0-28.8c0-5.4,1.8-10.4,5.2-14.5c0.5-0.6,1-1.1,1.5-1.7l16.5-16.5l1.9,2
		l14.5,14.5c3.5,3.5,5.8,7.9,6.5,12.8c0.1,0.4,0.1,0.7,0.1,1.1c0.1,0.8,0.1,1.5,0.1,2.3v28.8c0,15.8,6.2,30.7,17.4,41.9l42.8,42.8
		l42.8-42.8c11.2-11.2,17.4-26.1,17.4-41.9l0-28.8c0-5.4,1.8-10.4,5.2-14.5c0.5-0.6,1-1.1,1.5-1.7l16.4-16.4l16.4,16.4
		c3.5,3.5,5.8,7.9,6.5,12.8c0.1,0.4,0.1,0.7,0.1,1.1c0.1,0.8,0.1,1.5,0.1,2.3v28.8c0,15.8,6.2,30.7,17.4,41.9l42.8,42.8l38.7-38.7
		v-5.1l-38.7,38.7L352.6,617.8z"/>
	<path fill="#F8B8C3" d="M392.7,634.4l-28.3-28.3c-7.4-7.4-11.5-17.3-11.5-27.9l0-28.8c0-7.8-2.1-15.4-6.1-22c-1.8-3-4-5.8-6.5-8.3
		l-30.9-30.9l-30.9,30.9c-8.1,8.1-12.6,18.9-12.6,30.3l0,28.8c0,10.5-4.1,20.4-11.5,27.9l-28.3,28.3l-28.3-28.3
		c-7.4-7.4-11.5-17.3-11.5-27.9l0-28.8c0-7.8-2.1-15.4-6.1-22c-1.8-3-4-5.8-6.5-8.3l-30.9-30.9l-30.9,30.9
		c-8.1,8.1-12.6,18.9-12.6,30.3l0,28.8c0,10.5-4.1,20.4-11.5,27.9l-28.3,28.3l-28.3-28.3c-3.7-3.7-6.5-7.9-8.5-12.6v7.8
		c1.7,2.6,3.6,5,5.8,7.3l30.9,30.9l30.9-30.9c8.1-8.1,12.6-18.9,12.6-30.3l0-28.8c0-8.5,2.7-16.6,7.7-23.4c1.2-1.6,2.4-3,3.8-4.4
		l28.3-28.3l1.9,2l26.3,26.3c7.4,7.4,11.5,17.3,11.5,27.9v28.8c0,11.5,4.5,22.2,12.6,30.3l30.9,30.9l30.9-30.9
		c8.1-8.1,12.6-18.9,12.6-30.3l0-28.8c0-8.5,2.7-16.6,7.7-23.4c1.2-1.6,2.4-3,3.8-4.4l28.3-28.3l28.3,28.3
		c7.4,7.4,11.5,17.3,11.5,27.9v28.8c0,11.5,4.5,22.2,12.6,30.3l30.9,30.9l30.9-30.9c3.2-3.2,5.8-6.8,7.8-10.7v-10.5
		c-1.7,7.1-5.2,13.5-10.5,18.8L392.7,634.4z"/>
	<path fill="#F8B8C3" d="M392.7,467.8l-28.3-28.3c-7.4-7.4-11.5-17.3-11.5-27.9l0-28.8c0-7.8-2.1-15.4-6.1-22c-1.8-3-4-5.8-6.5-8.3
		l-30.9-30.9l-30.9,30.9c-8.1,8.1-12.6,18.9-12.6,30.3l0,28.8c0,10.5-4.1,20.4-11.5,27.9l-28.3,28.3l-28.3-28.3
		c-7.4-7.4-11.5-17.3-11.5-27.9l0-28.8c0-7.8-2.1-15.4-6.1-22c-1.8-3-4-5.8-6.5-8.3l-30.9-30.9l-30.9,30.9
		c-8.1,8.1-12.6,18.9-12.6,30.3l0,28.8c0,10.5-4.1,20.4-11.5,27.9l-28.3,28.3l-28.3-28.3c-3.7-3.7-6.5-7.9-8.5-12.6v7.8
		c1.7,2.6,3.6,5,5.8,7.3l30.9,30.9L90.5,442c8.1-8.1,12.6-18.9,12.6-30.3l0-28.8c0-8.5,2.7-16.6,7.7-23.4c1.2-1.6,2.4-3,3.8-4.4
		l28.3-28.3l1.9,2l26.3,26.3c7.4,7.4,11.5,17.3,11.5,27.9v28.8c0,11.5,4.5,22.2,12.6,30.3l30.9,30.9L257,442
		c8.1-8.1,12.6-18.9,12.6-30.3l0-28.8c0-8.5,2.7-16.6,7.7-23.4c1.2-1.6,2.4-3,3.8-4.4l28.3-28.3l28.3,28.3
		c7.4,7.4,11.5,17.3,11.5,27.9v28.8c0,11.5,4.5,22.2,12.6,30.3l30.9,30.9l30.9-30.9c3.2-3.2,5.8-6.8,7.8-10.7v-10.5
		c-1.7,7.1-5.2,13.5-10.5,18.8L392.7,467.8z"/>
	<path fill="#F8B8C3" d="M352.8,744.8l0-28.8c0-7.8-2.1-15.4-6.1-22c-1.8-3-4-5.8-6.5-8.3l-30.9-30.9l-30.9,30.9
		c-8.1,8.1-12.6,18.9-12.6,30.3l0,28.8c0,10.5-4.1,20.4-11.5,27.9l-0.8,0.8h5c7.1-7.9,11-18,11-28.6l0-28.8c0-8.5,2.7-16.6,7.7-23.4
		c1.2-1.6,2.4-3,3.8-4.4l28.3-28.3l28.3,28.3c7.4,7.4,11.5,17.3,11.5,27.9v28.8c0,10.7,3.9,20.8,11,28.6h5l-0.8-0.8
		C356.9,765.2,352.8,755.3,352.8,744.8z"/>
	<path fill="#F8B8C3" d="M197.8,772.7c-7.4-7.4-11.5-17.3-11.5-27.9l0-28.8c0-7.8-2.1-15.4-6.1-22c-1.8-3-4-5.8-6.5-8.3l-30.9-30.9
		l-30.9,30.9c-8.1,8.1-12.6,18.9-12.6,30.3l0,28.8c0,10.5-4.1,20.4-11.5,27.9l-0.8,0.8h5c7.1-7.9,11-18,11-28.6l0-28.8
		c0-8.5,2.7-16.6,7.7-23.4c1.2-1.6,2.4-3,3.8-4.4l28.3-28.3l1.9,2l26.3,26.3c7.4,7.4,11.5,17.3,11.5,27.9v28.8
		c0,10.7,3.9,20.8,11,28.6h5L197.8,772.7z"/>
	<path fill="#F8B8C3" d="M215.9,78.6c0,1,0.1,2,0.4,2.9c0.5,1.5,1.3,3,2.5,4.1l7.2,7.2l7.2-7.2c1.4-1.4,2.3-3.2,2.7-5.1
		c0.1-0.6,0.2-1.3,0.2-2l0-28.8c0-11,2.5-21.6,7.1-31.3c-11.5,0-23.1,0-34.5,0c4.6,9.6,7.1,20.3,7.1,31.3L215.9,78.6z"/>
	<path fill="#F8B8C3" d="M290.3,31.2c-5,5-7.7,11.6-7.7,18.7l0,28.8c0,14.9-5.8,28.9-16.4,39.5l-40.1,40.1L186,118.1
		c-10.5-10.6-16.4-24.6-16.4-39.5V49.9c0-7.1-2.7-13.7-7.7-18.7l-12.6-12.6c-1.7,0-3.4,0-5.1,0l0.6,0.6l14.5,14.5
		c3.5,3.5,5.8,7.9,6.5,12.8c0.1,0.4,0.1,0.7,0.1,1.1c0.1,0.8,0.1,1.5,0.1,2.3v28.8c0,15.8,6.2,30.7,17.4,42l42.8,42.8l42.8-42.8
		c11.2-11.2,17.4-26.1,17.4-41.9l0-28.8c0-5.4,1.8-10.4,5.2-14.5c0.5-0.6,1-1.1,1.5-1.7l15-15c-1.7,0-3.4,0-5.1,0L290.3,31.2z"/>
	<path fill="#F8B8C3" d="M102.3,120.6c11.2-11.2,17.4-26.1,17.4-41.9l0-28.8c0-5.4,1.8-10.4,5.2-14.5c0.5-0.6,1-1.1,1.5-1.7
		l15.1-15.1c-1.7,0-3.4,0-5.1,0l-12.6,12.6c-5,5-7.7,11.6-7.7,18.7l0,28.8c0,14.9-5.8,28.9-16.4,39.5l-40.1,40.1l-36.7-36.7v5.1
		l36.7,36.7L102.3,120.6z"/>
	<path fill="#F8B8C3" d="M352.6,118.1c-10.6-10.6-16.4-24.6-16.4-39.5V49.9c0-7.1-2.7-13.7-7.7-18.7l-12.6-12.6c-1.7,0-3.4,0-5.1,0
		l15,15c3.5,3.5,5.8,7.9,6.5,12.8c0.1,0.4,0.1,0.7,0.1,1.1c0.1,0.8,0.1,1.5,0.1,2.3v28.8c0,15.8,6.2,30.7,17.4,42l42.8,42.8
		l38.7-38.7v-5.1l-38.7,38.7L352.6,118.1z"/>
	<path fill="#F8B8C3" d="M420.9,106.5l-28.3,28.3l-28.3-28.3c-7.4-7.4-11.5-17.3-11.5-27.9l0-28.8c0-7.8-2.1-15.4-6.1-22
		c-1.8-3-4-5.8-6.5-8.3l-0.9-0.9c-1.7,0-3.4,0-5.1,0l3.4,3.4c7.4,7.4,11.5,17.3,11.5,27.9v28.8c0,11.5,4.5,22.2,12.6,30.3l30.9,30.9
		l30.9-30.9c3.2-3.2,5.8-6.8,7.8-10.7V87.7C429.7,94.7,426.2,101.2,420.9,106.5z"/>
	<path fill="#F8B8C3" d="M171.1,22c7.4,7.4,11.5,17.3,11.5,27.9v28.8c0,11.5,4.5,22.2,12.6,30.3l30.9,30.9l30.9-30.9
		c8.1-8.1,12.6-18.9,12.6-30.3l0-28.7c0-8.5,2.7-16.6,7.7-23.4c1.2-1.6,2.4-3,3.8-4.4l3.4-3.4c-1.7,0-3.4,0-5.1,0l-1,1
		c-8.1,8.1-12.6,18.9-12.6,30.3l0,28.8c0,10.5-4.1,20.4-11.5,27.9l-28.3,28.3l-28.3-28.3c-7.4-7.4-11.5-17.3-11.5-27.9l0-28.8
		c0-7.8-2.1-15.4-6.1-22c-1.8-3-4-5.8-6.5-8.3l-1-1c-1.7,0-3.4,0-5.1,0L171.1,22z"/>
	<path fill="#F8B8C3" d="M59.5,139.8l30.9-30.9c8.1-8.1,12.6-18.9,12.6-30.3l0-28.7c0-8.5,2.7-16.6,7.7-23.4c1.2-1.6,2.4-3,3.8-4.4
		l3.4-3.4c-1.8,0-3.5,0-5.1,0l-1,1c-8.1,8.1-12.6,18.9-12.6,30.3l0,28.8c0,10.5-4.1,20.4-11.5,27.9l-28.3,28.3l-28.3-28.3
		c-3.7-3.7-6.5-7.9-8.5-12.6v7.8c1.7,2.6,3.6,5,5.8,7.3L59.5,139.8z"/>
	<path fill="#F8B8C3" d="M365.8,78.6c0,7.1,2.7,13.7,7.7,18.7l19.1,19.1l19.1-19.1c5-5,7.7-11.6,7.7-18.7l0-28.8
		c0-1.8,0.1-3.6,0.3-5.5c-1-1.4-2.1-2.8-3.2-4.1c-0.5,3.1-0.8,6.3-0.8,9.6l0,28.8c0,6.1-2.4,11.9-6.7,16.2l-16.4,16.4l-16.4-16.4
		c-4.3-4.3-6.7-10.1-6.7-16.2l0-28.8c0-11.2-3.1-21.9-8.9-31.2c-1.3,0-2.8,0-4.3,0c6.2,9.2,9.5,19.9,9.5,31.2L365.8,78.6z"/>
	<path fill="#F8B8C3" d="M49.4,78.6c0,1,0.1,2,0.4,2.9c0.5,1.6,1.3,3,2.5,4.1l7.2,7.2l7.2-7.2c1.4-1.4,2.3-3.2,2.7-5.1
		c0.1-0.6,0.2-1.3,0.2-2l0-28.8c0-10.9,2.4-21.4,6.9-30.9c-11.1,1.2-21.3,5.6-29.7,12.2c1.6,6,2.5,12.3,2.5,18.7L49.4,78.6z"/>
	<path fill="#F8B8C3" d="M32.7,78.6c0,7.1,2.7,13.7,7.7,18.7l19.1,19.1l19.1-19.1c5-5,7.7-11.6,7.7-18.7l0-28.8
		c0-11.3,3.3-22.1,9.6-31.3c-1.6,0-3,0-4.3,0c-5.8,9.3-8.9,20.1-8.9,31.3l0,28.8c0,6.1-2.4,11.9-6.7,16.2l-16.4,16.4L43.1,94.8
		c-4.3-4.3-6.7-10.1-6.7-16.2l0-28.8c0-2.5-0.2-5-0.5-7.5c-1.2,1.5-2.2,3.1-3.3,4.7c0,0.9,0.1,1.9,0.1,2.8L32.7,78.6z"/>
	<path fill="#F8B8C3" d="M382.5,78.6c0,1,0.1,2,0.4,2.9c0.5,1.6,1.3,3,2.5,4.1l7.2,7.2l7.2-7.2c1.4-1.4,2.3-3.2,2.7-5.1
		c0.1-0.6,0.2-1.3,0.2-2l0-28.8c0-6.8,0.9-13.5,2.8-19.9c-8.6-6.3-18.9-10.3-30-11.1c4.5,9.6,6.9,20.1,6.9,31L382.5,78.6z"/>
	<path fill="#F8B8C3" d="M199.3,78.6c0,7.1,2.7,13.7,7.7,18.7l19.1,19.1l19.1-19.1c5-5,7.7-11.6,7.7-18.7l0-28.8
		c0-11.3,3.3-22.1,9.6-31.3c-1.4,0-2.9,0-4.3,0c-5.8,9.3-8.9,20.1-8.9,31.3l0,28.8c0,6.1-2.4,11.9-6.7,16.2l-16.4,16.4l-16.4-16.4
		c-4.3-4.3-6.7-10.1-6.7-16.2l0-28.8c0-11.2-3.1-22-8.9-31.3c-1.4,0-2.9,0-4.3,0c6.2,9.2,9.6,20,9.6,31.3L199.3,78.6z"/>
	<path fill="#F8B8C3" d="M415.8,578.3c0,6.1-2.4,11.9-6.7,16.2l-16.4,16.4l-16.4-16.4c-4.3-4.3-6.7-10.1-6.7-16.2l0-28.8
		c0-15.8-6.2-30.7-17.4-41.9l-42.8-42.8l-42.8,42.8c-11.2,11.2-17.4,26.1-17.4,41.9l0,28.8c0,6.1-2.4,11.9-6.7,16.2l-16.4,16.4
		l-16.4-16.4c-4.3-4.3-6.7-10.1-6.7-16.2l0-28.8c0-15.8-6.2-30.7-17.4-41.9l-42.8-42.8l-42.8,42.8c-11.2,11.2-17.4,26.1-17.4,41.9
		l0,28.8c0,6.1-2.4,11.9-6.7,16.2l-16.4,16.4l-16.4-16.4c-4.3-4.3-6.7-10.1-6.7-16.2l0-28.8c0-14-4.8-27.2-13.6-37.8v6
		c6.4,9.3,9.9,20.3,9.9,31.8l0,28.8c0,7.1,2.7,13.7,7.7,18.7L59.5,616l19.1-19.1c5-5,7.7-11.6,7.7-18.7l0-28.8
		c0-12.1,3.8-23.6,10.9-33.2c1.6-2.2,3.5-4.3,5.4-6.3l40.1-40.1l40.1,40.1c10.6,10.6,16.4,24.6,16.4,39.5l0,28.8
		c0,7.1,2.7,13.7,7.7,18.7l19.1,19.1l19.1-19.1c5-5,7.7-11.6,7.7-18.7l0-28.8c0-12.1,3.8-23.6,10.9-33.2c1.6-2.2,3.5-4.3,5.4-6.3
		l40-40l2,1.8l38.2,38.2c10.5,10.5,16.4,24.6,16.4,39.5l0,28.8c0,7.1,2.7,13.7,7.7,18.7l19.1,19.1l19.1-19.1c5-5,7.7-11.6,7.7-18.7
		l0-28.8c0-12.1,3.8-23.6,10.9-33.2c0.3-0.4,0.7-0.9,1-1.3v-5.6c-10.1,11-15.6,25.1-15.6,40.1L415.8,578.3z"/>
	<path fill="#F8B8C3" d="M340.7,629.4c-13.7-13.7-21.2-31.8-21.2-51.1v-28.8c0-2.7-1-5.2-2.9-7l-7.2-7.2l-7.2,7.2
		c-1.9,1.9-2.9,4.4-2.9,7l0,28.8c0,19.3-7.5,37.5-21.2,51.1l-51.9,51.9l-51.9-51.9c-13.7-13.7-21.2-31.8-21.2-51.1v-28.8
		c0-2.7-1-5.2-2.9-7l-7.2-7.2l-7.2,7.2c-1.9,1.9-2.9,4.4-2.9,7l0,28.8c0,19.3-7.5,37.5-21.2,51.1l-51.9,51.9l-36.7-36.7v14.9
		l5.4,5.4c13.7,13.7,21.2,31.8,21.2,51.1l0,28.8c0,1,0.1,2,0.4,2.9c0.5,1.6,1.3,3,2.5,4.1l7.2,7.2l7.2-7.2c1.4-1.4,2.3-3.2,2.7-5.1
		c0.1-0.6,0.2-1.3,0.2-2l0-28.8c0-18.3,6.8-35.8,19.3-49.2v0l1.9-1.9l52-52l1.9,2l50,50c13.7,13.7,21.2,31.8,21.2,51.1l0,28.8
		c0,1,0.1,2,0.4,2.9c0.5,1.5,1.3,3,2.5,4.1l7.2,7.2l7.2-7.2c1.4-1.4,2.3-3.2,2.7-5.1c0.1-0.6,0.2-1.3,0.2-2l0-28.8
		c0-18.3,6.8-35.8,19.3-49.2v0l1.9-1.9l51.9-51.9l51.9,51.9c13.7,13.7,21.2,31.8,21.2,51.1l0,28.8c0,1,0.1,2,0.4,2.9
		c0.5,1.6,1.3,3,2.5,4.1l7.2,7.2l7.2-7.2c1.4-1.4,2.3-3.2,2.7-5.1c0.1-0.6,0.2-1.3,0.2-2l0-28.8c0-18.3,6.8-35.8,19.3-49.2v0
		l1.9-1.9l7.4-7.4v-14.9l-38.7,38.7L340.7,629.4z"/>
	<polyline fill="#F8B8C3" points="235.2,773.4 230.1,773.4 222.1,773.4 217,773.4 	"/>
	<path fill="#F8B8C3" d="M36.4,744.8l0-28.8c0-14-4.8-27.2-13.6-37.8v6c6.4,9.3,9.9,20.3,9.9,31.8l0,28.8c0,0.1,0,0.2,0,0.3
		c1.4,2.3,3,4.4,4.7,6.4C36.7,749.4,36.4,747.1,36.4,744.8z"/>
	<path fill="#F8B8C3" d="M86.4,744.8l0-28.8c0-12.1,3.8-23.6,10.9-33.2c1.6-2.2,3.5-4.3,5.4-6.3l40.1-40.1l40.1,40.1
		c10.6,10.6,16.4,24.6,16.4,39.5l0,28.8c0,7.1,2.7,13.7,7.7,18.7l10,10h5.1L209.7,761c-4.3-4.3-6.7-10.1-6.7-16.2l0-28.8
		c0-15.8-6.2-30.7-17.4-41.9l-42.8-42.8l-42.8,42.8c-11.2,11.2-17.4,26.1-17.4,41.9l0,28.8c0,6.1-2.4,11.9-6.7,16.2l-9.9,9.9
		c1.3,0.4,2.7,0.8,4,1.1l8.5-8.5C83.6,758.5,86.4,751.9,86.4,744.8z"/>
	<path fill="#F8B8C3" d="M376.2,761c-4.3-4.3-6.7-10.1-6.7-16.2l0-28.8c0-15.8-6.2-30.7-17.4-41.9l-42.8-42.8l-42.8,42.8
		c-11.2,11.2-17.4,26.1-17.4,41.9l0,28.8c0,6.1-2.4,11.9-6.7,16.2l-12.4,12.4h5.1l10-10c5-5,7.7-11.6,7.7-18.7l0-28.8
		c0-12.1,3.8-23.6,10.9-33.2c1.6-2.2,3.5-4.3,5.4-6.3l40-40l2,1.8l38.2,38.2c10.5,10.6,16.4,24.6,16.4,39.5l0,28.8
		c0,7.1,2.7,13.7,7.7,18.7l8.8,8.8c1.4-0.3,2.8-0.6,4.1-1L376.2,761z"/>
	<path fill="#F8B8C3" d="M415.8,744.8c0,3.8-0.9,7.5-2.7,10.8c2.2-2.2,4.2-4.6,6.1-7.2c0.2-1.2,0.2-2.4,0.2-3.6l0-28.8
		c0-12.1,3.8-23.6,10.9-33.2c0.3-0.4,0.7-0.9,1-1.3V676c-10.1,11-15.6,25.1-15.6,40.1L415.8,744.8z"/>
	<path fill="#F8B8C3" d="M340.7,129.7c-13.7-13.7-21.2-31.8-21.2-51.1V49.9c0-2.7-1-5.2-2.9-7l-7.2-7.2l-7.2,7.2
		c-1.9,1.9-2.9,4.4-2.9,7l0,28.7c0,19.3-7.5,37.5-21.2,51.1l-51.9,51.9l-51.9-51.9C160.5,116.1,153,97.9,153,78.6V49.9
		c0-2.7-1-5.2-2.9-7l-7.2-7.2l-7.2,7.2c-1.9,1.9-2.9,4.4-2.9,7l0,28.7c0,19.3-7.5,37.5-21.2,51.1l-51.9,51.9l-36.7-36.7v14.9
		l5.4,5.4c13.7,13.7,21.2,31.8,21.2,51.1l0,28.8c0,1,0.1,2,0.4,2.9c0.5,1.6,1.3,3,2.5,4.1l7.2,7.2l7.2-7.2c1.4-1.4,2.3-3.2,2.7-5.1
		c0.1-0.6,0.2-1.3,0.2-2l0-28.8c0-18.3,6.8-35.8,19.3-49.2v0l1.9-1.9l52-52l1.9,2l50,50c13.7,13.7,21.2,31.8,21.2,51.1l0,28.8
		c0,1,0.1,2,0.4,2.9c0.5,1.5,1.3,3,2.5,4.1l7.2,7.2l7.2-7.2c1.4-1.4,2.3-3.2,2.7-5.1c0.1-0.6,0.2-1.3,0.2-2l0-28.8
		c0-18.3,6.8-35.8,19.3-49.2v0l1.9-1.9l51.9-51.9l51.9,51.9c13.7,13.7,21.2,31.8,21.2,51.1l0,28.8c0,1,0.1,2,0.4,2.9
		c0.5,1.6,1.3,3,2.5,4.1l7.2,7.2l7.2-7.2c1.4-1.4,2.3-3.2,2.7-5.1c0.1-0.6,0.2-1.3,0.2-2l0-28.8c0-18.3,6.8-35.8,19.3-49.2v0
		l1.9-1.9l7.4-7.4v-14.9l-38.7,38.7L340.7,129.7z"/>
	<path fill="#F8B8C3" d="M415.8,245.2c0,6.1-2.4,11.9-6.7,16.2l-16.4,16.4l-16.4-16.4c-4.3-4.3-6.7-10.1-6.7-16.2l0-28.8
		c0-15.8-6.2-30.7-17.4-41.9l-42.8-42.8l-42.8,42.8c-11.2,11.2-17.4,26.1-17.4,41.9l0,28.8c0,6.1-2.4,11.9-6.7,16.2l-16.4,16.4
		l-16.4-16.4c-4.3-4.3-6.7-10.1-6.7-16.2l0-28.8c0-15.8-6.2-30.7-17.4-41.9l-42.8-42.8l-42.8,42.8c-11.2,11.2-17.4,26.1-17.4,41.9
		l0,28.8c0,6.1-2.4,11.9-6.7,16.2l-16.4,16.4l-16.4-16.4c-4.3-4.3-6.7-10.1-6.7-16.2l0-28.8c0-14-4.8-27.2-13.6-37.8v6
		c6.4,9.3,9.9,20.3,9.9,31.8l0,28.8c0,7.1,2.7,13.7,7.7,18.7l19.1,19.1l19.1-19.1c5-5,7.7-11.6,7.7-18.7l0-28.8
		c0-12.1,3.8-23.6,10.9-33.2c1.6-2.2,3.5-4.3,5.4-6.3l40.2-40.2l1.9,2l38.2,38.2c10.6,10.5,16.4,24.6,16.4,39.5l0,28.8
		c0,7.1,2.7,13.7,7.7,18.7l19.1,19.1l19.1-19.1c5-5,7.7-11.6,7.7-18.7l0-28.8c0-12.1,3.8-23.6,10.9-33.2c1.6-2.2,3.5-4.3,5.4-6.3
		l40.1-40.1l40.1,40.1c10.5,10.5,16.4,24.6,16.4,39.5l0,28.8c0,7.1,2.7,13.7,7.7,18.7l19.1,19.1l19.1-19.1c5-5,7.7-11.6,7.7-18.7
		l0-28.8c0-12.1,3.8-23.6,10.9-33.2c0.3-0.4,0.7-0.9,1-1.3v-5.6c-10.1,11-15.6,25.1-15.6,40.1L415.8,245.2z"/>
	<path fill="#F8B8C3" d="M340.7,462.8c-13.7-13.7-21.2-31.8-21.2-51.1V383c0-2.7-1-5.2-2.9-7l-7.2-7.2l-7.2,7.2
		c-1.9,1.9-2.9,4.4-2.9,7l0,28.8c0,19.3-7.5,37.5-21.2,51.1l-51.9,51.9l-51.9-51.9C160.5,449.2,153,431,153,411.7V383
		c0-2.7-1-5.2-2.9-7l-7.2-7.2l-7.2,7.2c-1.9,1.9-2.9,4.4-2.9,7l0,28.8c0,19.3-7.5,37.5-21.2,51.1l-51.9,51.9L22.8,478V493l5.4,5.4
		c13.7,13.7,21.2,31.8,21.2,51.1l0,28.8c0,1,0.1,2,0.4,2.9c0.5,1.6,1.3,3,2.5,4.1l7.2,7.2l7.2-7.2c1.4-1.4,2.3-3.2,2.7-5.1
		c0.1-0.6,0.2-1.3,0.2-2l0-28.8c0-18.3,6.8-35.8,19.3-49.2v0l1.9-1.9l52-52l1.9,2l50,50c13.7,13.7,21.2,31.8,21.2,51.1l0,28.8
		c0,1,0.1,2,0.4,2.9c0.5,1.5,1.3,3,2.5,4.1l7.2,7.2l7.2-7.2c1.4-1.4,2.3-3.2,2.7-5.1c0.1-0.6,0.2-1.3,0.2-2l0-28.8
		c0-18.3,6.8-35.8,19.3-49.2v0l1.9-1.9l51.9-51.9l51.9,51.9c13.7,13.7,21.2,31.8,21.2,51.1l0,28.8c0,1,0.1,2,0.4,2.9
		c0.5,1.6,1.3,3,2.5,4.1l7.2,7.2l7.2-7.2c1.4-1.4,2.3-3.2,2.7-5.1c0.1-0.6,0.2-1.3,0.2-2l0-28.8c0-18.3,6.8-35.8,19.3-49.2v0
		l1.9-1.9l7.4-7.4V476l-38.7,38.7L340.7,462.8z"/>
	<path fill="#F8B8C3" d="M415.8,411.7c0,6.1-2.4,11.9-6.7,16.2l-16.4,16.4l-16.4-16.4c-4.3-4.3-6.7-10.1-6.7-16.2l0-28.8
		c0-15.8-6.2-30.7-17.4-41.9l-42.8-42.8L266.6,341c-11.2,11.2-17.4,26.1-17.4,41.9l0,28.8c0,6.1-2.4,11.9-6.7,16.2l-16.4,16.4
		l-16.4-16.4c-4.3-4.3-6.7-10.1-6.7-16.2l0-28.8c0-15.8-6.2-30.7-17.4-41.9l-42.8-42.8L100.1,341c-11.2,11.2-17.4,26.1-17.4,41.9
		l0,28.8c0,6.1-2.4,11.9-6.7,16.2l-16.4,16.4l-16.4-16.4c-4.3-4.3-6.7-10.1-6.7-16.2l0-28.8c0-14-4.8-27.2-13.6-37.8v6
		c6.4,9.3,9.9,20.3,9.9,31.8l0,28.8c0,7.1,2.7,13.7,7.7,18.7l19.1,19.1l19.1-19.1c5-5,7.7-11.6,7.7-18.7l0-28.8
		c0-12.1,3.8-23.6,10.9-33.2c1.6-2.2,3.5-4.3,5.4-6.3l40.1-40.1l40.1,40.1c10.6,10.5,16.4,24.6,16.4,39.5l0,28.8
		c0,7.1,2.7,13.7,7.7,18.7l19.1,19.1l19.1-19.1c5-5,7.7-11.6,7.7-18.7l0-28.8c0-12.1,3.8-23.6,10.9-33.2c1.6-2.2,3.5-4.3,5.4-6.3
		l40-40l2,1.8l38.2,38.2C360,354,365.8,368,365.8,383l0,28.8c0,7.1,2.7,13.7,7.7,18.7l19.1,19.1l19.1-19.1c5-5,7.7-11.6,7.7-18.7
		l0-28.8c0-12.1,3.8-23.6,10.9-33.2c0.3-0.4,0.7-0.9,1-1.3v-5.6c-10.1,11-15.6,25.1-15.6,40.1L415.8,411.7z"/>
	<path fill="#F8B8C3" d="M340.7,296.3c-13.7-13.7-21.2-31.8-21.2-51.1v-28.8c0-2.7-1-5.2-2.9-7l-7.2-7.2l-7.2,7.2
		c-1.9,1.9-2.9,4.4-2.9,7l0,28.7c0,19.3-7.5,37.5-21.2,51.1l-51.9,51.9l-51.9-51.9c-13.7-13.7-21.2-31.8-21.2-51.1v-28.8
		c0-2.7-1-5.2-2.9-7l-7.2-7.2l-7.2,7.2c-1.9,1.9-2.9,4.4-2.9,7l0,28.7c0,19.3-7.5,37.5-21.2,51.1l-51.9,51.9l-36.7-36.7v14.9
		l5.4,5.4c13.7,13.7,21.2,31.8,21.2,51.1l0,28.8c0,1,0.1,2,0.4,2.9c0.5,1.6,1.3,3,2.5,4.1l7.2,7.2l7.2-7.2c1.4-1.4,2.3-3.2,2.7-5.1
		c0.1-0.6,0.2-1.3,0.2-2l0-28.8c0-18.3,6.8-35.8,19.3-49.2v0l1.9-1.9l52-52l1.9,2l50,50c13.7,13.7,21.2,31.8,21.2,51.1l0,28.8
		c0,1,0.1,2,0.4,2.9c0.5,1.5,1.3,3,2.5,4.1l7.2,7.2l7.2-7.2c1.4-1.4,2.3-3.2,2.7-5.1c0.1-0.6,0.2-1.3,0.2-2l0-28.8
		c0-18.3,6.8-35.8,19.3-49.2v0l1.9-1.9l51.9-51.9l51.9,51.9c13.7,13.7,21.2,31.8,21.2,51.1l0,28.8c0,1,0.1,2,0.4,2.9
		c0.5,1.6,1.3,3,2.5,4.1l7.2,7.2l7.2-7.2c1.4-1.4,2.3-3.2,2.7-5.1c0.1-0.6,0.2-1.3,0.2-2l0-28.8c0-18.3,6.8-35.8,19.3-49.2v0
		l1.9-1.9l7.4-7.4v-14.9l-38.7,38.7L340.7,296.3z"/>
	<path fill="#F8B8C3" d="M319.5,716.1c0-2.7-1-5.2-2.9-7l-7.2-7.2l-7.2,7.2c-1.9,1.9-2.9,4.4-2.9,7l0,28.7c0,10-2,19.7-5.9,28.6
		h32.1c-3.8-8.9-5.9-18.6-5.9-28.6V716.1z"/>
	<path fill="#F8B8C3" d="M336.2,716.1c0-7.1-2.7-13.7-7.7-18.7l-19.1-19.1l-19.1,19.1c-5,5-7.7,11.6-7.7,18.7l0,28.8
		c0,10.2-2.7,20.1-7.9,28.6h4.2c4.8-8.7,7.4-18.5,7.4-28.6l0-28.8c0-5.4,1.8-10.4,5.2-14.5c0.5-0.6,1-1.1,1.5-1.7l16.4-16.4
		l16.4,16.4c3.5,3.5,5.8,7.9,6.5,12.8c0.1,0.4,0.1,0.7,0.1,1.1c0.1,0.8,0.1,1.5,0.1,2.3v28.8c0,10.2,2.6,20,7.4,28.6h4.2
		c-5.1-8.6-7.9-18.4-7.9-28.6V716.1z"/>
	<path fill="#F8B8C3" d="M169.6,716.1c0-7.1-2.7-13.7-7.7-18.7l-19.1-19.1l-19.1,19.1c-5,5-7.7,11.6-7.7,18.7l0,28.8
		c0,10.2-2.7,20.1-7.9,28.6h4.2c4.8-8.7,7.4-18.5,7.4-28.6l0-28.8c0-5.4,1.8-10.4,5.2-14.5c0.5-0.6,1-1.1,1.5-1.7l16.5-16.5l1.9,2
		l14.5,14.5c3.5,3.5,5.8,7.9,6.5,12.8c0.1,0.4,0.1,0.7,0.1,1.1c0.1,0.8,0.1,1.5,0.1,2.3v28.8c0,10.2,2.6,20,7.4,28.6h4.2
		c-5.1-8.6-7.9-18.4-7.9-28.6V716.1z"/>
	<path fill="#F8B8C3" d="M153,716.1c0-2.7-1-5.2-2.9-7l-7.2-7.2l-7.2,7.2c-1.9,1.9-2.9,4.4-2.9,7l0,28.7c0,10-2,19.7-5.9,28.6h32.1
		c-3.8-8.9-5.9-18.6-5.9-28.6V716.1z"/>
</g>
</svg>
